<?xml version="1.0"?>
<svg version="1.1" xmlns="http://www.w3.org/2000/svg" width="800px" height="200px" style=""><path fill="#fcb900" d="M80.065,100.28q0,2.765-2.695,6.51q-2.1,2.94-5.5825,4.725t-6.4225,1.785q-1.085,0-1.82-0.245q-1.47,1.89-4.725,5.915q1.225,1.75,4.4275,3.29t5.5125,1.54t3.43-0.63q1.54-0.805,1.54-2.31q0-0.385-0.07-0.735t0.2275-0.35t0.525,0.5075t0.2275,0.8925q0,1.225-1.295,2.31q-1.645,1.33-4.48,1.33t-5.88-1.33t-5.005-3.605q-2.8,2.8-5.32,2.8q-0.77,0-1.33-0.28q-1.225-0.7-1.225-2.66t1.6275-4.83t2.5725-3.045q0.63,0,1.435,1.435l2.205,4.27q1.855-2.45,3.885-5.355q-2.87-1.295-2.87-3.745q0-2.03,1.645-3.29q0.91-0.665,1.9425-0.665t1.5575,1.085q0.105,0.21,0.0175,0.2625t-0.1225,0.0175q-0.7-0.7-1.505-0.7l-0.07,0q-1.015,0-1.7675,1.085t-0.7525,1.995l0,0.21q0,1.82,2.52,3.115q0.42-0.595,1.3475-1.9775t1.4525-2.1525q6.965-10.22,11.585-10.22q3.255,0,3.255,3.045z M76.95,97.83q-1.75,0-4.34,2.94q-1.785,2.065-4.1825,5.5475t-4.3225,5.9675q0.455,0.105,1.015,0.105q2.45,0,5.6-1.68t4.97-4.235q3.185-4.445,3.185-6.755q0-1.4-1.225-1.785q-0.315-0.105-0.7-0.105z M57.07,118.725q-0.84-1.155-1.75-2.9575t-1.2075-2.1525t-0.4025-0.35l-0.14,0q-0.63,0.105-1.365,2.24t-0.735,4.1825t1.26,2.0475q0.91,0,2.1875-0.945t2.1525-2.065z M86.19595,110.535l0.49-0.105q0.385,0,0.735,0.315t0.35,0.49t-2.17,3.3775t-2.17,4.4625q0,0.105,0.035,0.21q0.175,0.805,0.77,0.805q1.82,0,6.65-6.02q0.105-0.14,0.245-0.14t0.14,0.2625t-0.315,0.6825q-4.48,5.985-6.825,5.985q-0.315,0-0.595-0.105q-1.54-0.595-1.54-2.31q0-0.595,0.14-1.19l-2.17,2.1q-2.065,1.82-2.9925,1.82t-1.7675-0.595q-0.945-0.7-0.945-1.855q0-2.555,3.57-6.1075t6.545-3.5525q1.155,0,1.54,0.805q0.105,0.28,0.175,0.4725t0.105,0.1925z M75.73095,119.145q0,1.26,0.875,1.26q2.03,0,5.53-4.445l3.71-5.11q-0.28-0.49-0.91-0.49q-2.135,0-5.67,3.3075t-3.535,5.4775z M109.16785,110.99q0.49,0,0.49,1.155q0,1.75-1.7325,3.2725t-3.9725,1.5225q-1.435,0-2.765-0.7q-2.835-1.54-2.835-5.355q0-2.695,1.47-5.285q2.03-3.535,5.8275-5.6t7.4025-2.065q2.625,0,4.305,1.155q1.89,1.295,1.89,3.85q0,3.255-3.15,10.2025t-3.15,7.8575q0,0.28,0.175,0.175q0.91-0.595,8.3475-9.5025t10.3425-11.0075q2.59-1.925,4.3225-2.8875t3.5525-0.9625q0.49,0,0.735,0.035q0.945,0.07,0.945,0.98q0,0.455-0.315,0.455q-0.035,0-0.49-0.1575t-0.77-0.1575q-4.9,0-13.195,8.855q-3.115,3.325-7.5775,8.96t-5.2675,6.09q-2.835,1.61-3.185,1.61q-0.105,0-0.105-0.35q0-1.155,1.96-5.88q0.805-1.82,2.345-5.46l1.61-4.725q0.84-2.38,0.84-3.465q0-2.415-1.4-3.675t-4.025-1.26t-5.635,1.855q-3.255,2.1-4.865,5.18t-1.61,5.215t0.875,3.36q1.435,1.995,3.815,1.995q1.82,0,3.22-1.2075t1.4-3.0625q0-0.385-0.0875-0.7t0.2625-0.315z M133.3063,107.0525q0.4725,0.3325,0.4725,0.7875t-0.4375,0.7875t-0.9625,0.3325t-0.9625-0.385t-0.4375-0.875q0-0.98,1.33-0.98q0.525,0,0.9975,0.3325z M125.9738,121.385q-1.785,0-1.785-2.31q0-1.89,2.065-5.2325t3.325-3.3775q0.35,0,0.7875,0.28t0.4375,0.56q-0.175,0.245-0.42,0.5425t-0.525,0.6475t-0.77,0.9975t-0.945,1.2425q-2.625,3.395-2.625,4.6725t0.875,1.2775q0.735,0,1.995-0.805q2.94-1.82,4.655-3.99q0.63-0.805,0.8575-0.805t0.2275,0.28t-0.805,1.12t-1.2775,1.33t-0.6475,0.6475t-0.6475,0.595t-0.7175,0.6125t-0.7,0.525t-0.805,0.5075t-0.805,0.3675q-0.735,0.315-1.75,0.315z M135.95475,121.455q-0.385,0-0.7-0.105q-2.24-0.63-2.24-2.52q0-2.45,3.08-5.67t5.53-3.22q0.805,0,1.3125,0.4375t0.5075,1.0675q0,1.96-2.9575,3.745t-4.8125,1.785q-0.28,0-0.49-0.07q-0.525,0.945-0.525,1.995q0,1.82,1.7325,1.82t4.4975-2.345q2.135-1.715,3.64-3.64q0.315-0.42,0.5425-0.42t0.2275,0.21t-0.28,0.595q-1.89,2.485-4.55,4.41t-4.515,1.925z M142.56975,111.375q0-0.42-0.8925-0.42t-2.5375,1.365q-2.205,1.82-3.43,3.815q0.21,0.07,0.455,0.07q1.33,0,3.5525-1.4175t2.7825-3.0975q0.07-0.175,0.07-0.315z"/><path fill="#" d=""/></svg>
